<?xml version="1.0" encoding="UTF-8"?>
<!-- Created with Inkscape (http://www.inkscape.org/) -->
<svg width="60" height="75" version="1.1" viewBox="0 0 15.875 19.844" xmlns="http://www.w3.org/2000/svg" xmlns:cc="http://creativecommons.org/ns#" xmlns:dc="http://purl.org/dc/elements/1.1/" xmlns:rdf="http://www.w3.org/1999/02/22-rdf-syntax-ns#">
 <metadata>
  <rdf:RDF>
   <cc:Work rdf:about="">
    <dc:format>image/svg+xml</dc:format>
    <dc:type rdf:resource="http://purl.org/dc/dcmitype/StillImage"/>
    <dc:title/>
   </cc:Work>
  </rdf:RDF>
 </metadata>
 <g transform="translate(0 -277.16)">
  <g transform="matrix(.52614 0 0 .52614 -2.5797 141.44)">
   <g fill="#231f20">
    <path d="m14.929 289.57c-0.26576 0-0.4756 0.0885-0.62952 0.26487-0.15374 0.17673-0.23059 0.41868-0.23059 0.72583 0 0.31616 0.07421 0.56011 0.22232 0.73208 0.14841 0.17244 0.35989 0.25866 0.63426 0.25866 0.16887 0 0.36124-0.0303 0.57741-0.0908v0.24624c-0.16775 0.0625-0.37443 0.0938-0.62031 0.0938-0.35608 0-0.63098-0.10779-0.82435-0.32349-0.19366-0.21599-0.29032-0.52243-0.29032-0.91977 0-0.24893 0.04642-0.46657 0.13974-0.65401 0.09302-0.18698 0.22783-0.33112 0.4035-0.43263 0.1759-0.10111 0.38287-0.1517 0.62102-0.1517 0.25356 0 0.47518 0.0463 0.66492 0.1388l-0.11916 0.2409c-0.18305-0.0859-0.36604-0.12877-0.54892-0.12877"/>
    <path d="m16.484 291.58c0.17104 0 0.30514-0.0473 0.40303-0.14074 0.09747-0.0932 0.14607-0.22432 0.14607-0.39277v-0.16341l-0.27455 0.0113c-0.21828 8e-3 -0.37572 0.0417-0.47225 0.10147-0.0963 0.0603-0.14454 0.15345-0.14454 0.28022 0 0.0992 0.03007 0.17438 0.09015 0.22597 0.06008 0.0519 0.14425 0.0779 0.2521 0.0779zm-0.40836-1.8942c0.13997-0.1494 0.23815-0.25995 0.29436-0.33011 0.05609-0.0706 0.09701-0.12854 0.12233-0.17338h0.27455c0.02427 0.0463 0.06653 0.10574 0.12643 0.17901 0.06026 0.0735 0.15908 0.1817 0.29706 0.32448v0.0379h-0.19688c-0.09712-0.0603-0.21892-0.16271-0.36534-0.30684-0.15017 0.14741-0.27097 0.24993-0.36247 0.30684h-0.19003zm1.0287 2.0872-0.05457-0.25761h-0.01331c-0.09021 0.11319-0.18041 0.19038-0.27027 0.2303-0.08997 0.0403-0.20216 0.0603-0.33674 0.0603-0.17971 0-0.3205-0.0463-0.42267-0.1388-0.10181-0.0921-0.15275-0.22361-0.15275-0.39465 0-0.3654 0.29254-0.55677 0.87821-0.57442l0.30749-0.01v-0.11254c0-0.14172-0.03059-0.24658-0.09161-0.31411-0.06108-0.0679-0.15925-0.10152-0.29372-0.10152-0.15111 0-0.32179 0.046-0.51264 0.13851l-0.0844-0.20967c0.08921-0.0483 0.18704-0.0862 0.29354-0.11388 0.10644-0.0276 0.21312-0.0413 0.32015-0.0413 0.21599 0 0.37618 0.0477 0.48052 0.14344 0.10422 0.0959 0.15609 0.24963 0.15609 0.46065v1.2353h-0.20333"/>
    <path d="m20.184 291.77v-1.1774c0-0.14442-0.03095-0.25228-0.09255-0.32442-0.06189-0.0719-0.15773-0.10786-0.28785-0.10786-0.17104 0-0.29718 0.0486-0.37871 0.14677-0.08153 0.0978-0.12244 0.24894-0.12244 0.45227v1.0107h-0.27455v-1.1774c0-0.14442-0.03095-0.25228-0.09255-0.32442-0.06189-0.0719-0.15837-0.10786-0.2895-0.10786-0.17209 0-0.29805 0.0512-0.37806 0.1541-0.07989 0.10316-0.11981 0.27191-0.11981 0.50619v0.94943h-0.27455v-1.8097h0.22332l0.04455 0.24758h0.01331c0.05193-0.0878 0.12485-0.15708 0.21916-0.20632 0.09419-0.0496 0.19987-0.0743 0.31669-0.0743 0.28352 0 0.46856 0.10258 0.55578 0.30726h0.01324c0.05392-0.0949 0.13212-0.1698 0.23481-0.22467 0.10246-0.0549 0.21945-0.0826 0.35057-0.0826 0.20503 0 0.35878 0.0523 0.46059 0.15744 0.10217 0.1055 0.1531 0.27356 0.1531 0.50485v1.1804h-0.27455"/>
    <path d="m21.828 290.16c-0.18504 0-0.31915 0.0509-0.40162 0.15304-0.08288 0.10287-0.12549 0.2653-0.12748 0.48891v0.0612c0 0.25427 0.04226 0.43597 0.12748 0.54582 0.08481 0.10943 0.22092 0.16434 0.4083 0.16434 0.15662 0 0.27918-0.0633 0.36804-0.19002 0.08892-0.12678 0.13311-0.30115 0.13311-0.52342 0-0.22566-0.04419-0.39869-0.13311-0.51956-0.08886-0.12016-0.21365-0.18035-0.37472-0.18035zm0.0398 1.6427c-0.11799 0-0.22578-0.0217-0.32326-0.0652-0.09759-0.0436-0.17959-0.11048-0.24565-0.20034h-0.01999c0.01335 0.10551 0.01999 0.20567 0.01999 0.30051v0.74446h-0.27455v-2.622h0.22332l0.03792 0.24759h0.01331c0.07051-0.0992 0.15275-0.17039 0.24624-0.21435 0.0939-0.0442 0.2014-0.0662 0.32267-0.0662 0.24043 0 0.42583 0.0819 0.5566 0.246 0.13077 0.16407 0.196 0.39395 0.196 0.69019 0 0.29717-0.06658 0.52811-0.19935 0.69252-0.13276 0.16471-0.31728 0.24694-0.55326 0.24694"/>
    <path d="m23.358 289.96v1.1737c0 0.14783 0.03377 0.25796 0.10099 0.33052 0.06717 0.0729 0.1725 0.10914 0.31593 0.10914 0.18973 0 0.32818-0.0519 0.41604-0.15538 0.08751-0.10351 0.13141-0.27227 0.13141-0.50684v-0.95112h0.27461v1.8097h-0.22666l-0.03957-0.24295h-0.01501c-0.05627 0.0892-0.13428 0.15773-0.23393 0.20468-0.09982 0.0476-0.2137 0.0712-0.34178 0.0712-0.22033 0-0.38544-0.0522-0.49523-0.15673-0.10984-0.10457-0.1647-0.27191-0.1647-0.50185v-1.1841h0.27789"/>
    <path d="m26.348 291.28c0 0.1684-0.06295 0.29817-0.1885 0.38937-0.12567 0.0915-0.30222 0.1371-0.52934 0.1371-0.24026 0-0.42759-0.0379-0.5624-0.11383v-0.25461c0.08716 0.0443 0.18071 0.0789 0.28053 0.10456 0.09982 0.0249 0.19606 0.0379 0.28856 0.0379 0.14343 0 0.25356-0.0229 0.33076-0.0686 0.07725-0.0459 0.11582-0.11547 0.11582-0.20931 0-0.0702-0.03066-0.13047-0.09185-0.18036-0.06119-0.0503-0.18059-0.10919-0.35807-0.17777-0.16875-0.0626-0.28856-0.11741-0.35977-0.16436-0.07104-0.0466-0.12414-0.0998-0.15873-0.15908-0.03458-0.0596-0.05205-0.13047-0.05205-0.21329 0-0.14712 0.06002-0.26394 0.18018-0.34875 0.12016-0.0855 0.28522-0.12819 0.49453-0.12819 0.1953 0 0.38603 0.0396 0.57237 0.11887l-0.09748 0.22296c-0.182-0.0749-0.34694-0.11218-0.49453-0.11218-0.13012 0-0.2283 0.0199-0.29454 0.0606-0.06623 0.0413-0.09912 0.0972-0.09912 0.16875 0 0.0486 0.01231 0.0895 0.0371 0.12374 0.02473 0.0339 0.06471 0.0666 0.11992 0.0975 0.05527 0.0306 0.1609 0.0756 0.31745 0.1334 0.215 0.0785 0.36048 0.15709 0.43597 0.23663 0.07538 0.0793 0.11318 0.17871 0.11318 0.29887"/>
    <path d="m15.415 294.37h0.82241v1.1746c-0.12795 0.0408-0.25814 0.0716-0.39055 0.0926-0.13235 0.0209-0.28574 0.0314-0.46 0.0314-0.36628 0-0.6515-0.10879-0.85559-0.32631-0.2041-0.21751-0.30614-0.52231-0.30614-0.91438 0-0.2511 0.05046-0.47108 0.1514-0.65999 0.10093-0.18891 0.2463-0.33316 0.43609-0.43286 0.18973-0.0996 0.41206-0.14953 0.66691-0.14953 0.25814 0 0.49863 0.0474 0.72148 0.14208l-0.1092 0.24788c-0.21846-0.0926-0.42864-0.1388-0.63051-0.1388-0.29454 0-0.5246 0.0876-0.69006 0.26265-0.16547 0.17514-0.24823 0.41798-0.24823 0.72857 0 0.32601 0.07972 0.57325 0.23914 0.74176 0.15937 0.16852 0.39354 0.25281 0.70249 0.25281 0.1677 0 0.33146-0.0193 0.49148-0.0579v-0.7434h-0.54112v-0.25116"/>
    <path d="m16.961 294.73c0 0.23129 0.04636 0.40748 0.13903 0.52864 0.09267 0.12121 0.22889 0.1817 0.40872 0.1817s0.31634-0.0603 0.4096-0.18088c0.0932-0.12064 0.13979-0.29712 0.13979-0.52946 0-0.23019-0.0466-0.40509-0.13979-0.52454-0.09325-0.11952-0.23088-0.17924-0.41288-0.17924-0.17989 0-0.31558 0.0589-0.40713 0.17671-0.09156 0.11788-0.13733 0.29355-0.13733 0.52707zm1.3818 0c0 0.29518-0.07444 0.52559-0.22338 0.6914-0.14894 0.16577-0.35467 0.24859-0.61726 0.24859-0.16218 0-0.30614-0.038-0.43193-0.114s-0.22285-0.18505-0.29125-0.32713c-0.0684-0.14202-0.10257-0.30831-0.10257-0.49886 0-0.29519 0.07391-0.52507 0.22174-0.68978 0.14782-0.16464 0.35303-0.24694 0.61562-0.24694 0.25374 0 0.45531 0.0842 0.60484 0.25275 0.14947 0.16852 0.2242 0.39646 0.2242 0.68397"/>
    <path d="m19.099 295.63h-0.27467v-1.8106h0.27467zm-0.29788-2.3012c0-0.0629 0.01542-0.10879 0.04636-0.13799 0.03089-0.0292 0.06952-0.0437 0.11582-0.0437 0.04414 0 0.08218 0.0149 0.11418 0.0446s0.048 0.0755 0.048 0.13716c0 0.0617-0.016 0.10761-0.048 0.13792-0.032 0.0303-0.07005 0.0454-0.11418 0.0454-0.04631 0-0.08493-0.0151-0.11582-0.0454-0.03095-0.0303-0.04636-0.0763-0.04636-0.13792"/>
    <path d="m20.176 295.44c0.17104 0 0.30532-0.0467 0.40297-0.14038 0.09765-0.0936 0.14642-0.22467 0.14642-0.39319v-0.16353l-0.27466 0.0115c-0.21851 8e-3 -0.37595 0.0416-0.47249 0.10164-0.09654 0.06-0.14484 0.15333-0.14484 0.28 0 0.0991 0.03007 0.17455 0.09021 0.22631 0.06014 0.0517 0.14425 0.0776 0.25239 0.0776zm-0.40877-1.8949c0.14009-0.1497 0.23826-0.25989 0.29454-0.33035 0.05627-0.0705 0.09707-0.12836 0.12244-0.17349h0.27478c0.02427 0.0463 0.06641 0.10597 0.12661 0.17924 0.06008 0.0733 0.15914 0.18147 0.29694 0.3246v0.038h-0.19688c-0.09707-0.0605-0.21898-0.16301-0.36564-0.30725-0.15011 0.14753-0.27092 0.24999-0.36247 0.30725h-0.19032zm1.0294 2.0882-0.05463-0.25767h-0.0133c-0.09044 0.11342-0.18065 0.19026-0.2705 0.23042-0.08997 0.0402-0.20216 0.0603-0.3368 0.0603-0.17983 0-0.3208-0.0463-0.42278-0.13874-0.1021-0.0926-0.1531-0.22414-0.1531-0.39488 0-0.36564 0.29289-0.5573 0.87868-0.57489l0.30784-0.01v-0.11236c0-0.14208-0.03059-0.24694-0.09179-0.3147-0.06125-0.0677-0.15914-0.10163-0.29378-0.10163-0.15111 0-0.3222 0.0463-0.51305 0.13879l-0.0844-0.20984c0.08939-0.0484 0.18727-0.0864 0.29377-0.11394 0.10644-0.0276 0.21324-0.0413 0.32015-0.0413 0.21629 0 0.37654 0.0479 0.48081 0.14372 0.10422 0.0958 0.15638 0.24947 0.15638 0.46094v1.2357h-0.20351"/>
    <path d="m22.808 295.63v-1.1713c0-0.14758-0.03365-0.25772-0.10088-0.3304-0.06735-0.0727-0.17274-0.10902-0.31611-0.10902-0.18979 0-0.32877 0.0512-0.41704 0.15362-0.08827 0.10246-0.13241 0.2715-0.13241 0.50719v0.9499h-0.27472v-1.8106h0.22344l0.04472 0.24776h0.01319c0.05627-0.0892 0.13516-0.15832 0.23662-0.20731 0.10152-0.049 0.21459-0.0735 0.33926-0.0735 0.21845 0 0.38287 0.0526 0.49318 0.15779 0.11025 0.10515 0.16547 0.27338 0.16547 0.50467v1.1812h-0.27472"/>
    <path d="m23.921 295.63h-0.27467v-1.8106h0.27467zm-0.29782-2.3012c0-0.0629 0.01542-0.10879 0.04631-0.13799s0.06952-0.0437 0.11588-0.0437c0.04408 0 0.08212 0.0149 0.11418 0.0446 0.03195 0.0297 0.04794 0.0755 0.04794 0.13716 0 0.0617-0.016 0.10761-0.04794 0.13792-0.03206 0.0303-0.0701 0.0454-0.11418 0.0454-0.04636 0-0.08499-0.0151-0.11588-0.0454-0.03089-0.0303-0.04631-0.0763-0.04631-0.13792"/>
    <path d="m24.999 295.44c0.17098 0 0.30532-0.0467 0.40291-0.14038 0.09765-0.0936 0.14648-0.22467 0.14648-0.39319v-0.16353l-0.27466 0.0115c-0.21851 8e-3 -0.37595 0.0416-0.47249 0.10164-0.09654 0.06-0.14484 0.15333-0.14484 0.28 0 0.0991 0.03007 0.17455 0.09021 0.22631 0.06014 0.0517 0.14419 0.0776 0.25239 0.0776zm0.62055 0.19331-0.05463-0.25767h-0.01319c-0.0905 0.11342-0.18071 0.19026-0.27056 0.23042-0.08997 0.0402-0.20222 0.0603-0.33685 0.0603-0.17977 0-0.32074-0.0463-0.42273-0.13874-0.10211-0.0926-0.1531-0.22414-0.1531-0.39488 0-0.36564 0.2929-0.5573 0.87868-0.57489l0.30778-0.01v-0.11236c0-0.14208-0.03054-0.24694-0.09179-0.3147-0.06125-0.0677-0.15914-0.10163-0.29377-0.10163-0.15111 0-0.32214 0.0463-0.51299 0.13879l-0.08435-0.20984c0.08933-0.0484 0.18721-0.0864 0.29372-0.11394 0.10644-0.0276 0.21318-0.0413 0.32021-0.0413 0.21623 0 0.37648 0.0479 0.48075 0.14372 0.10422 0.0958 0.15638 0.24947 0.15638 0.46094v1.2357h-0.20357"/>
   </g>
   <path d="m33.18 287.99c0 0.0579-0.05774 0.0868-0.1153 0.0868h-26.15c-0.057541 0-0.1153-0.029-0.1153-0.0868 0-0.0573 0.057765-0.0862 0.1153-0.0862h26.15c0.05756 0 0.1153 0.029 0.1153 0.0862" fill="#37a033"/>
   <g fill="#231f20">
    <path d="m16.995 284.82h0.82698v1.1811c-0.12883 0.041-0.25954 0.0722-0.39266 0.0932-0.13317 0.0209-0.28738 0.0316-0.46264 0.0316-0.36839 0-0.65507-0.10943-0.86022-0.32812-0.20532-0.21863-0.30784-0.52518-0.30784-0.91948 0-0.25262 0.05058-0.4739 0.15204-0.66362 0.10152-0.19003 0.24782-0.33504 0.43867-0.43522 0.19067-0.10017 0.41428-0.15046 0.67054-0.15046 0.2596 0 0.5015 0.0476 0.72547 0.14279l-0.10978 0.24922c-0.21963-0.0932-0.43099-0.13944-0.63397-0.13944-0.29618 0-0.52747 0.0879-0.69387 0.26394-0.1664 0.17631-0.24958 0.42032-0.24958 0.73279 0 0.32777 0.08001 0.57641 0.24026 0.74575 0.16043 0.1694 0.39588 0.25427 0.70653 0.25427 0.16869 0 0.33346-0.0193 0.49418-0.0582v-0.74744h-0.54412v-0.25257"/>
    <path d="m18.549 285.18c0 0.23263 0.04654 0.41 0.13974 0.5318 0.0932 0.1218 0.2303 0.18264 0.411 0.18264 0.18088 0 0.31816-0.0605 0.412-0.182 0.09355-0.12109 0.14044-0.29881 0.14044-0.53244 0-0.2313-0.04689-0.40696-0.14044-0.52747-0.09384-0.12016-0.23229-0.18001-0.41534-0.18001-0.18071 0-0.3171 0.0592-0.4093 0.17766-0.0922 0.11846-0.1381 0.29518-0.1381 0.52982zm1.3894 0c0 0.29681-0.07491 0.52875-0.22467 0.69515-0.14976 0.16676-0.35655 0.25029-0.62061 0.25029-0.16312 0-0.30784-0.0383-0.43433-0.11477-0.12643-0.0763-0.22396-0.18604-0.29284-0.32882-0.06887-0.14308-0.10316-0.31019-0.10316-0.50185 0-0.29688 0.07421-0.52782 0.22297-0.69353 0.14876-0.16541 0.35508-0.24823 0.61896-0.24823 0.25526 0 0.45795 0.0848 0.60836 0.25421 0.15023 0.16939 0.22531 0.3987 0.22531 0.68755"/>
    <path d="m20.699 286.1h-0.27619v-1.8207h0.27619zm-0.29952-2.3142c0-0.0629 0.01547-0.10913 0.0466-0.13873 0.03112-0.0293 0.06992-0.044 0.11652-0.044 0.04437 0 0.08265 0.015 0.11477 0.0449 0.03206 0.0299 0.04824 0.0759 0.04824 0.1378 0 0.0622-0.01618 0.10855-0.04824 0.13874-0.03212 0.0307-0.0704 0.0456-0.11477 0.0456-0.0466 0-0.0854-0.015-0.11652-0.0456-0.03113-0.0302-0.0466-0.0765-0.0466-0.13874"/>
    <path d="m21.717 283.99c0.05322-0.0686 0.1106-0.15175 0.17221-0.24923 0.06155-0.0972 0.11014-0.18211 0.14577-0.25391h0.33609v0.0349c-0.04894 0.0719-0.12145 0.16043-0.21799 0.26565-0.09648 0.10515-0.18036 0.18662-0.25122 0.24424h-0.18487zm0.06489 1.9089c0.17186 0 0.30696-0.0473 0.40514-0.14143 0.09818-0.0939 0.14747-0.22567 0.14747-0.39536v-0.16441l-0.27625 0.0116c-0.21963 8e-3 -0.37806 0.042-0.47518 0.10222-0.09724 0.0606-0.14566 0.15439-0.14566 0.28153 0 0.0998 0.03012 0.17572 0.09068 0.2276 0.06061 0.0523 0.14513 0.0782 0.2538 0.0782zm0.62418 0.1943-0.05498-0.25918h-0.01324c-0.0912 0.11412-0.18176 0.19131-0.27226 0.23164-0.09038 0.0406-0.20333 0.0608-0.33862 0.0608-0.18088 0-0.32261-0.0466-0.42513-0.13974-0.10252-0.0928-0.15392-0.22531-0.15392-0.39699 0-0.3678 0.29448-0.56046 0.88372-0.57811l0.30948-0.01v-0.11271c0-0.14314-0.03095-0.2487-0.09249-0.31657-0.0616-0.0682-0.16007-0.10211-0.29518-0.10211-0.1521 0-0.32414 0.0466-0.51604 0.13944l-0.08481-0.211c0.0898-0.0486 0.18815-0.0869 0.29536-0.11448 0.10715-0.0276 0.21429-0.0416 0.32208-0.0416 0.21734 0 0.37841 0.0482 0.48321 0.14442 0.1048 0.0965 0.15744 0.25093 0.15744 0.46358v1.2426h-0.20462"/>
    <path d="m24.356 285.6c0 0.1694-0.06324 0.30016-0.18968 0.39202-0.12643 0.0922-0.30403 0.13809-0.53245 0.13809-0.24196 0-0.43046-0.0383-0.5658-0.11477v-0.25591c0.08757 0.0445 0.18158 0.0791 0.28193 0.10481 0.10046 0.0253 0.1973 0.0383 0.29049 0.0383 0.14413 0 0.25515-0.0229 0.33281-0.0689 0.07755-0.0459 0.11647-0.11611 0.11647-0.21031 0-0.0709-0.03078-0.13147-0.09232-0.1817-0.0616-0.0506-0.18176-0.11014-0.3603-0.17871-0.16969-0.0632-0.29055-0.11817-0.36206-0.16535-0.07151-0.047-0.12479-0.10053-0.15972-0.16014-0.035-0.0598-0.05228-0.13141-0.05228-0.21429 0-0.14841 0.06043-0.26552 0.18141-0.35139 0.1208-0.0859 0.28668-0.12878 0.49752-0.12878 0.19636 0 0.3882 0.0399 0.57571 0.11946l-0.09818 0.22425c-0.18299-0.0751-0.34893-0.11277-0.49746-0.11277-0.131 0-0.22965 0.0203-0.29624 0.0612-0.06658 0.0413-0.09982 0.0975-0.09982 0.16968 0 0.0486 0.01231 0.0902 0.03728 0.1245 0.02491 0.0343 0.06524 0.0669 0.1208 0.0982 0.05539 0.031 0.16189 0.0759 0.31945 0.13445 0.21634 0.0786 0.36241 0.15774 0.43849 0.23763 0.07602 0.0795 0.11394 0.18001 0.11394 0.30051"/>
   </g>
   <g fill="#37a033">
    <path d="m21.662 261.01c0 0.17308-0.14413 0.31716-0.31716 0.31716h-2.5947c-0.17303 0-0.31716-0.14408-0.31716-0.31716v-2.5948c0-0.17303 0.14413-0.3171 0.31716-0.3171h2.5947c0.17303 0 0.31716 0.14407 0.31716 0.3171v2.5948"/>
    <path d="m25.525 261.01c0 0.17308-0.14413 0.31716-0.31722 0.31716h-2.5946c-0.17303 0-0.31716-0.14408-0.31716-0.31716v-2.5948c0-0.17303 0.14413-0.3171 0.31716-0.3171h2.5946c0.17309 0 0.31722 0.14407 0.31722 0.3171v2.5948"/>
    <path d="m25.525 268.73c0 0.17303-0.14413 0.3171-0.31722 0.3171h-2.5946c-0.17303 0-0.31716-0.14407-0.31716-0.3171v-2.5948c0-0.17303 0.14413-0.31716 0.31716-0.31716h2.5946c0.17309 0 0.31722 0.14413 0.31722 0.31716v2.5948"/>
    <path d="m17.798 264.87c0 0.17268-0.14442 0.31715-0.3171 0.31715h-2.595c-0.17285 0-0.3171-0.14447-0.3171-0.31715v-2.5948c0-0.17303 0.14425-0.31716 0.3171-0.31716h2.595c0.17268 0 0.3171 0.14413 0.3171 0.31716v2.5948"/>
    <path d="m21.662 264.87c0 0.17268-0.14413 0.31715-0.31716 0.31715h-2.5947c-0.17303 0-0.31716-0.14447-0.31716-0.31715v-2.5948c0-0.17303 0.14413-0.31716 0.31716-0.31716h2.5947c0.17303 0 0.31716 0.14413 0.31716 0.31716v2.5948"/>
    <path d="m17.798 268.73c0 0.17303-0.14442 0.3171-0.3171 0.3171h-2.595c-0.17285 0-0.3171-0.14407-0.3171-0.3171v-2.5948c0-0.17303 0.14425-0.31716 0.3171-0.31716h2.595c0.17268 0 0.3171 0.14413 0.3171 0.31716v2.5948"/>
    <path d="m21.662 268.73c0 0.17303-0.14413 0.3171-0.31716 0.3171h-2.5947c-0.17303 0-0.31716-0.14407-0.31716-0.3171v-2.5948c0-0.17303 0.14413-0.31716 0.31716-0.31716h2.5947c0.17303 0 0.31716 0.14413 0.31716 0.31716v2.5948"/>
    <path d="m17.798 272.6c0 0.17303-0.14442 0.31717-0.3171 0.31717h-2.595c-0.17285 0-0.3171-0.14414-0.3171-0.31717v-2.5947c0-0.17309 0.14425-0.31716 0.3171-0.31716h2.595c0.17268 0 0.3171 0.14407 0.3171 0.31716v2.5947"/>
    <path d="m21.662 272.6c0 0.17303-0.14413 0.31717-0.31716 0.31717h-2.5947c-0.17303 0-0.31716-0.14414-0.31716-0.31717v-2.5947c0-0.17309 0.14413-0.31716 0.31716-0.31716h2.5947c0.17303 0 0.31716 0.14407 0.31716 0.31716v2.5947"/>
   </g>
   <path d="m17.971 259.71c0 0.98037-0.77839 1.7588-1.7584 1.7588-0.98026 0-1.7588-0.7784-1.7588-1.7588 0-0.98008 0.77857-1.7585 1.7588-1.7585 0.95142 0 1.7584 0.7784 1.7584 1.7585" fill="#cf181f"/>
   <g fill="#231f20">
    <path d="m8.3992 278.36v-3.2008h0.67972v3.2008h-0.67972"/>
    <path d="m12.745 278.36h-0.86406l-1.3947-2.4215h-0.01965c0.02761 0.42765 0.04163 0.73279 0.04163 0.91514v1.5063h-0.60736v-3.2008h0.85725l1.3927 2.3971h0.01531c-0.02198-0.41569-0.03297-0.70993-0.03297-0.88226v-1.5149h0.61182v3.2008"/>
    <path d="m15.445 277.48c0 0.28885-0.10422 0.51651-0.31253 0.68292-0.20849 0.16634-0.49816 0.24951-0.86954 0.24951-0.34213 0-0.64481-0.0642-0.90787-0.19266v-0.63033c0.21629 0.0962 0.39951 0.16411 0.54927 0.20374 0.14988 0.0393 0.28686 0.0589 0.41129 0.0589 0.14912 0 0.26341-0.0283 0.34313-0.0852 0.07972-0.0569 0.11946-0.14173 0.11946-0.25391 0-0.0629-0.01746-0.11893-0.05258-0.16782-0.03511-0.0489-0.08652-0.0958-0.15457-0.14108-0.06805-0.0453-0.2065-0.11753-0.41551-0.2167-0.19601-0.0921-0.34295-0.18035-0.4409-0.26488-0.09783-0.0849-0.17608-0.1834-0.23463-0.29553-0.05856-0.11248-0.08774-0.24389-0.08774-0.39435 0-0.28282 0.09607-0.50549 0.28838-0.66756 0.19237-0.16206 0.45795-0.2429 0.79709-0.2429 0.1667 0 0.32578 0.0197 0.477 0.0589 0.15128 0.0395 0.30966 0.0951 0.47472 0.16634l-0.21928 0.52782c-0.17104-0.0702-0.31247-0.11916-0.42431-0.14677-0.11184-0.0276-0.2218-0.0416-0.33-0.0416-0.1286 0-0.22742 0.0299-0.296 0.0899-0.06887 0.0599-0.10316 0.1378-0.10316 0.23428 0 0.0599 0.01401 0.11184 0.04162 0.15644 0.02796 0.0445 0.07221 0.0875 0.13276 0.12913 0.06061 0.0417 0.20433 0.11647 0.43099 0.22426 0.29963 0.14313 0.50514 0.28656 0.61615 0.43034 0.11113 0.14372 0.16676 0.32015 0.16676 0.52887"/>
    <path d="m17.261 278.36h-0.67975v-2.6361h-0.8706v-0.56475h2.4211v0.56475h-0.87071v2.6361"/>
    <path d="m18.624 278.36v-3.2008h0.67986v3.2008h-0.67986"/>
    <path d="m21.348 278.36h-0.67992v-2.6361h-0.87054v-0.56475h2.421v0.56475h-0.87053v2.6361"/>
    <path d="m25.333 275.16v2.071c0 0.23669-0.05293 0.44401-0.15908 0.62208-0.1058 0.17801-0.25908 0.31446-0.45924 0.40935-0.20034 0.0948-0.43732 0.14202-0.71052 0.14202-0.41235 0-0.73244-0.10515-0.96074-0.3161-0.22795-0.21101-0.34213-0.49957-0.34213-0.86602v-2.0623h0.6777v1.9595c0 0.24659 0.04982 0.4277 0.14929 0.54283 0.09917 0.11553 0.26376 0.17302 0.49318 0.17302 0.22232 0 0.38357-0.0579 0.48374-0.17396 0.1-0.11618 0.15029-0.29829 0.15029-0.54623v-1.9551h0.67752"/>
    <path d="m27.368 278.36h-0.67975v-2.6361h-0.87054v-0.56475h2.421v0.56475h-0.87071v2.6361"/>
    <path d="m29.301 276.76c0 0.35737 0.06805 0.62664 0.20398 0.80776 0.13593 0.181 0.33908 0.2715 0.60947 0.2715 0.54247 0 0.81368-0.35965 0.81368-1.0793 0-0.72113-0.26968-1.0816-0.80911-1.0816-0.27044 0-0.47442 0.0909-0.61187 0.27261-0.13745 0.18164-0.20614 0.45121-0.20614 0.80899zm2.34 0c0 0.52975-0.13165 0.93689-0.39471 1.2218-0.26318 0.28457-0.64048 0.42659-1.1318 0.42659-0.49113 0-0.86819-0.14202-1.1314-0.42659-0.26324-0.28486-0.39471-0.69363-0.39471-1.2261 0-0.5328 0.13177-0.93981 0.39564-1.2207 0.26394-0.28088 0.64229-0.42132 1.1351-0.42132 0.49265 0 0.86936 0.1415 1.1305 0.42466 0.26101 0.28322 0.39148 0.69018 0.39148 1.2217"/>
    <path d="m11.3 282.21h-0.66891v-3.2007h1.8377v0.55607h-1.1688v0.82569h1.0876v0.55373h-1.0876v1.2652"/>
    <path d="m14.962 282.21h-1.8466v-3.2007h1.8466v0.55607h-1.1667v0.70284h1.0855v0.55607h-1.0855v0.82534h1.1667v0.56041"/>
    <path d="m17.584 280.6c0-0.68754-0.30421-1.0313-0.91221-1.0313h-0.36188v2.0842h0.29166c0.65495 0 0.98243-0.3511 0.98243-1.0529zm0.70618-0.0176c0 0.52718-0.15011 0.9305-0.45062 1.2107-0.30052 0.28023-0.73449 0.42032-1.3015 0.42032h-0.90787v-3.2007h1.0065c0.52336 0 0.92985 0.1381 1.2192 0.41399 0.28949 0.27584 0.43427 0.66123 0.43427 1.1558"/>
    <path d="m20.802 282.21h-1.8465v-3.2007h1.8465v0.55607h-1.1668v0.70284h1.0855v0.55607h-1.0855v0.82534h1.1668v0.56041"/>
    <path d="m22.15 280.43h0.21933c0.21482 0 0.37337-0.0356 0.47589-0.10714 0.10216-0.0716 0.15339-0.18411 0.15339-0.33751 0-0.15175-0.05228-0.2596-0.15673-0.32384-0.10451-0.0642-0.26658-0.0965-0.48591-0.0965h-0.20597zm0 0.55174v1.228h-0.67986v-3.2007h0.93407c0.43568 0 0.75818 0.0792 0.96713 0.23756 0.2092 0.15843 0.31364 0.39904 0.31364 0.72154 0 0.18832-0.05193 0.35572-0.15556 0.50249-0.10386 0.14642-0.25093 0.2616-0.44095 0.34477 0.48257 0.71949 0.79686 1.1844 0.9431 1.3944h-0.75442l-0.76544-1.228h-0.36171"/>
    <path d="m26.004 280.88c-0.215-0.69048-0.33609-1.0808-0.36306-1.1713-0.02696-0.0906-0.04642-0.16213-0.05809-0.21471-0.04824 0.18704-0.18651 0.64898-0.41446 1.386zm0.39471 1.3308-0.23264-0.76174h-1.1687l-0.23246 0.76174h-0.7325l1.1316-3.2137h0.83103l1.1361 3.2137h-0.73244"/>
    <path d="m27.555 282.21v-3.2007h0.67992v2.6403h1.3004v0.56041h-1.9803"/>
   </g>
  </g>
 </g>
</svg>
